Coordinates
version=1
nRows=14
nColumns=63
inDegrees=yes

Units are S.I. units (second, meters, Newtons, ...)
If the header above contains a line with 'inDegrees', this indicates whether rotational values are in degrees (yes) or radians (no).

endheader
time	pelvis_tilt	pelvis_list	pelvis_rotation	pelvis_tx	pelvis_ty	pelvis_tz	hip_flexion_r	hip_adduction_r	hip_rotation_r	knee_angle_r	knee_angle_r_beta	ankle_angle_r	subtalar_angle_r	mtp_angle_r	hip_flexion_l	hip_adduction_l	hip_rotation_l	knee_angle_l	knee_angle_l_beta	ankle_angle_l	subtalar_angle_l	mtp_angle_l	L5_S1_Flex_Ext	L5_S1_Lat_Bending	L5_S1_axial_rotation	L4_L5_Flex_Ext	L4_L5_Lat_Bending	L4_L5_axial_rotation	L3_L4_Flex_Ext	L3_L4_Lat_Bending	L3_L4_axial_rotation	L2_L3_Flex_Ext	L2_L3_Lat_Bending	L2_L3_axial_rotation	L1_L2_Flex_Ext	L1_L2_Lat_Bending	L1_L2_axial_rotation	L1_T12_Flex_Ext	L1_T12_Lat_Bending	L1_T12_axial_rotation	Abs_r3	Abs_r2	Abs_r1	Abs_t1	Abs_t2	neck_flexion	neck_bending	neck_rotation	arm_flex_r	arm_add_r	arm_rot_r	elbow_flex_r	pro_sup_r	wrist_flex_r	wrist_dev_r	arm_flex_l	arm_add_l	arm_rot_l	elbow_flex_l	pro_sup_l	wrist_flex_l	wrist_dev_l
0.711864	-0.156809	-0.176593	89.107660	0.249343	0.967930	0.306457	-0.498301	-3.495916	-14.472571	12.423377	0.216829	30.445464	18.636029	0.000000	-3.685923	3.049626	-2.022315	4.825256	0.084217	16.123266	-16.120542	0.000000	0.083800	-0.328393	1.395387	0.155626	-0.436763	1.482599	0.137676	-0.798455	1.482599	0.095775	-0.798455	1.220964	0.077817	-0.669659	1.133752	0.047884	-0.508681	1.046540	0.598577	-3.714848	7.760724	0.000000	0.000000	17.439786	-0.917042	-20.206377	36.166448	-5.203360	-1.424819	85.996472	81.299935	-5.325472	10.269633	39.783723	-11.555430	10.664072	79.950546	74.873785	-6.704916	8.787198
0.728814	-0.012802	0.109035	89.026827	0.248906	0.968145	0.306977	-0.685152	-3.444486	-14.635262	12.696628	0.221598	30.317014	18.646807	0.000000	-3.980269	2.949302	-2.038370	4.800364	0.083782	16.240644	-16.213008	0.000000	0.064028	-0.293459	1.340000	0.118906	-0.390301	1.423750	0.105191	-0.713517	1.423750	0.073177	-0.713517	1.172500	0.059456	-0.598422	1.088750	0.036585	-0.454568	1.005000	0.457343	-3.319670	7.452676	0.000000	0.000000	16.597185	-0.985632	-19.516169	40.672207	-5.183992	-0.092622	80.772383	79.141323	-5.284231	10.076487	42.979523	-11.349368	9.506484	77.475181	75.877391	-6.784368	8.682326
0.745763	0.125940	0.402388	88.954624	0.248494	0.968325	0.307542	-0.901196	-3.389794	-14.778891	12.921453	0.225522	30.205879	18.654717	0.000000	-4.271688	2.851751	-2.050297	4.793123	0.083656	16.386323	-16.310882	0.000000	0.043317	-0.258311	1.279535	0.080444	-0.343554	1.359506	0.071166	-0.628058	1.359506	0.049507	-0.628058	1.119593	0.040224	-0.526748	1.039623	0.024751	-0.400124	0.959652	0.309410	-2.922068	7.116392	0.000000	0.000000	15.763089	-1.144611	-18.795887	45.162541	-5.258829	1.566242	74.767029	76.776063	-5.390900	9.892416	46.111668	-11.160090	8.629413	74.304712	76.669476	-6.789297	8.108296
0.762712	0.264342	0.677309	88.889977	0.248092	0.968484	0.308108	-1.121459	-3.324411	-14.884246	13.088933	0.228445	30.104522	18.658693	0.000000	-4.535073	2.751533	-2.057840	4.802430	0.083818	16.544964	-16.405049	0.000000	0.024566	-0.222251	1.216889	0.045622	-0.295593	1.292944	0.040360	-0.540380	1.292944	0.028077	-0.540380	1.064777	0.022812	-0.453213	0.988722	0.014037	-0.344266	0.912666	0.175473	-2.514143	6.767969	0.000000	0.000000	14.963389	-1.404135	-18.079419	49.336724	-5.446633	3.372310	68.645984	74.598165	-5.661222	9.606177	48.990751	-11.025553	7.940643	70.935507	77.218307	-6.766426	7.228278
0.779661	0.413855	0.914577	88.827683	0.247682	0.968634	0.308629	-1.324861	-3.235825	-14.946652	13.196597	0.230324	30.003056	18.662266	0.000000	-4.755562	2.638373	-2.074426	4.821552	0.084152	16.703568	-16.494543	0.000000	0.008840	-0.183667	1.159258	0.016416	-0.244278	1.231711	0.014523	-0.446569	1.231711	0.010103	-0.446569	1.014351	0.008209	-0.374535	0.941897	0.005051	-0.284501	0.869443	0.063141	-2.077682	6.447444	0.000000	0.000000	14.241662	-1.778093	-17.415107	52.941298	-5.757156	5.155280	63.021547	72.857727	-6.055390	9.145104	51.471760	-10.968787	7.363029	67.838491	77.492506	-6.739786	6.317262
0.796610	0.577714	1.093928	88.769666	0.247258	0.968774	0.309047	-1.491765	-3.118673	-14.958882	13.241887	0.231115	29.897179	18.665023	0.000000	-4.918513	2.508420	-2.098473	4.842557	0.084519	16.849834	-16.572112	0.000000	-0.002300	-0.142781	1.114589	-0.004271	-0.189899	1.184251	-0.003779	-0.347158	1.184251	-0.002629	-0.347158	0.975265	-0.002136	-0.291159	0.905603	-0.001314	-0.221168	0.835942	-0.016428	-1.615169	6.199009	0.000000	0.000000	13.641602	-2.249002	-16.870845	55.779664	-6.181882	6.750984	58.409587	71.642364	-6.525193	8.484311	53.442507	-11.005033	6.825931	65.422627	77.457158	-6.683369	5.672861
0.813559	0.753137	1.205071	88.715024	0.246836	0.968905	0.309335	-1.608260	-2.975212	-14.928483	13.233383	0.230966	29.786882	18.666348	0.000000	-5.017988	2.363497	-2.129621	4.858490	0.084797	16.969000	-16.634784	0.000000	-0.008688	-0.101139	1.087438	-0.016134	-0.134515	1.155403	-0.014274	-0.245910	1.155403	-0.009930	-0.245910	0.951509	-0.008068	-0.206243	0.883544	-0.004964	-0.156665	0.815579	-0.062058	-1.144107	6.048006	0.000000	0.000000	13.192114	-2.784137	-16.515139	57.742697	-6.682983	8.018241	55.173821	70.937764	-7.011531	7.610815	54.821606	-11.139018	6.237609	63.986187	77.145814	-6.523305	5.492738
0.830508	0.937533	1.248731	88.667642	0.246412	0.969023	0.309473	-1.672764	-2.810117	-14.869512	13.182476	0.230078	29.669215	18.664626	0.000000	-5.056976	2.206459	-2.162143	4.866227	0.084932	17.060290	-16.682251	0.000000	-0.010641	-0.059580	1.075192	-0.019761	-0.079242	1.142391	-0.017481	-0.144863	1.142391	-0.012161	-0.144863	0.940793	-0.009881	-0.121496	0.873593	-0.006080	-0.092290	0.806394	-0.076005	-0.673984	5.979893	0.000000	0.000000	12.901416	-3.349050	-16.345832	58.822581	-7.203256	8.846535	53.499934	70.700802	-7.447536	6.520244	55.552469	-11.367900	5.495994	63.673148	76.647051	-6.168630	5.712523
0.847458	1.128309	1.236468	88.636655	0.245972	0.969118	0.309465	-1.696659	-2.629292	-14.807602	13.100778	0.228652	29.553444	18.664630	0.000000	-5.046692	2.040058	-2.189419	4.866324	0.084933	17.131365	-16.718819	0.000000	-0.008921	-0.018033	1.068317	-0.016567	-0.023984	1.135087	-0.014656	-0.043846	1.135087	-0.010196	-0.043846	0.934778	-0.008284	-0.036773	0.868008	-0.005097	-0.027933	0.801238	-0.063722	-0.203994	5.941660	0.000000	0.000000	12.756516	-3.915430	-16.267647	59.095585	-7.688349	9.188166	53.405066	70.839587	-7.818708	5.241153	55.639811	-11.678922	4.500992	64.437951	76.270878	-5.601985	6.011274
0.864407	1.316153	1.178825	88.612740	0.245546	0.969187	0.309334	-1.682399	-2.445150	-14.744921	13.006475	0.227006	29.438680	18.663427	0.000000	-4.995056	1.873225	-2.220475	4.864389	0.084900	17.185477	-16.737557	0.000000	-0.003943	0.022523	1.061597	-0.007323	0.029955	1.127947	-0.006478	0.054761	1.127947	-0.004507	0.054761	0.928898	-0.003662	0.045928	0.862548	-0.002253	0.034887	0.796198	-0.028165	0.254780	5.904286	0.000000	0.000000	12.727685	-4.478968	-16.225860	58.675525	-8.091182	8.971884	54.793452	71.332049	-8.006805	3.994696	55.180927	-12.092782	3.311593	66.111814	75.912575	-5.096866	6.148921
0.881356	1.494367	1.094557	88.605340	0.245152	0.969244	0.309101	-1.646493	-2.265581	-14.702530	12.911650	0.225351	29.326393	18.662156	0.000000	-4.918548	1.710493	-2.247701	4.862997	0.084875	17.224947	-16.738239	0.000000	0.002628	0.060798	1.047209	0.004880	0.080861	1.112660	0.004317	0.147823	1.112660	0.003003	0.147823	0.916308	0.002440	0.123979	0.850857	0.001501	0.094176	0.785407	0.018768	0.687755	5.824264	0.000000	0.000000	12.787053	-5.006285	-16.162520	57.708272	-8.377664	8.175101	57.452366	72.166539	-8.023192	3.133325	54.330698	-12.608360	1.941828	68.404575	75.743080	-4.672136	6.114004
0.898305	1.652056	0.998944	88.613227	0.244817	0.969302	0.308827	-1.597886	-2.103075	-14.686049	12.827149	0.223876	29.214755	18.659520	0.000000	-4.827799	1.561771	-2.276704	4.865471	0.084918	17.241100	-16.718749	0.000000	0.009115	0.094878	1.023360	0.016928	0.126188	1.087320	0.014975	0.230686	1.087320	0.010418	0.230686	0.895440	0.008464	0.193475	0.831480	0.005208	0.146966	0.767520	0.065110	1.073278	5.691619	0.000000	0.000000	12.906392	-5.480820	-16.064445	56.373035	-8.582830	6.906136	61.030132	73.350245	-7.976752	2.894405	53.342183	-13.280544	0.764543	70.937186	75.451997	-4.545506	5.815900
0.915254	1.785133	0.891390	88.625239	0.244572	0.969386	0.308564	-1.528935	-1.962150	-14.669702	12.756411	0.222641	29.079636	18.654080	0.000000	-4.716170	1.430197	-2.325399	4.877667	0.085131	17.216684	-16.678361	0.000000	0.016414	0.122085	0.996321	0.030483	0.162373	1.058591	0.026967	0.296837	1.058591	0.018760	0.296837	0.871781	0.015242	0.248955	0.809510	0.009379	0.189109	0.747240	0.117245	1.381047	5.541236	0.000000	0.000000	13.030121	-5.863028	-16.061511	54.861832	-8.712932	5.207564	65.044879	75.039901	-7.749228	3.452005	52.407313	-14.051050	-0.138760	73.346963	75.298775	-4.622763	5.561682
0.932203	1.916912	0.820387	88.648687	0.244322	0.969528	0.308367	-1.487349	-1.826589	-14.691182	12.708828	0.221811	28.940022	18.653833	0.000000	-4.633447	1.298068	-2.372738	4.899770	0.085517	17.192204	-16.630017	0.000000	0.018836	0.150467	0.949422	0.034980	0.200121	1.008760	0.030945	0.365845	1.008760	0.021527	0.365845	0.830744	0.017491	0.306832	0.771405	0.010763	0.233073	0.712066	0.134541	1.702111	5.280398	0.000000	0.000000	13.133031	-6.188467	-15.773264	53.518528	-8.812160	3.605655	68.797199	76.872345	-7.541004	4.628211	51.676465	-14.998908	-0.506810	75.318234	74.878118	-4.948964	5.288087
